<?xml version="1.0" encoding="utf-8"?>
<!-- Svg Vector Icons : http://www.onlinewebfonts.com/icon -->
<!DOCTYPE svg PUBLIC "-//W3C//DTD SVG 1.1//EN" "http://www.w3.org/Graphics/SVG/1.1/DTD/svg11.dtd">
<svg version="1.1" xmlns="http://www.w3.org/2000/svg" xmlns:xlink="http://www.w3.org/1999/xlink" x="0px" y="0px" viewBox="0 0 1000 1000" enable-background="new 0 0 1000 1000" xml:space="preserve">
<metadata> Svg Vector Icons : http://www.onlinewebfonts.com/icon </metadata>
<g><path d="M500,10C229.3,10,10,229.3,10,500c0,270.7,219.3,490,490,490c270.7,0,490-219.3,490-490C989.4,229.3,770.1,10,500,10z M255,575.3c-41.6,0-75.3-33.7-75.3-75.3c0-41.6,33.7-75.3,75.3-75.3c41.6,0,75.3,33.7,75.3,75.3C330.3,541.7,296.6,575.3,255,575.3z M500,575.3c-41.7,0-75.3-33.7-75.3-75.3c0-41.6,33.7-75.3,75.3-75.3c41.6,0,75.3,33.7,75.3,75.3C575.3,541.7,541.7,575.3,500,575.3z M745,575.3c-41.6,0-75.3-33.7-75.3-75.3c0-41.6,33.7-75.3,75.3-75.3c41.6,0,75.3,33.7,75.3,75.3C820.3,541.7,786.7,575.3,745,575.3z"/></g>
</svg>