<?xml version="1.0" encoding="utf-8"?>
<svg viewBox="143.804 184.622 136.7764 196.8478" xmlns="http://www.w3.org/2000/svg">
  <g transform="matrix(9.882685661315918, 0, 0, 9.882685661315918, 93.50117492675776, 164.24845886230466)">
    <path d="M9.27 7.27a0.52 0.52 0 0 0 0.41 0.21h4.64a0.49 0.49 0 0 0 0.4 -0.21l1.5 -2.11a1.61 1.61 0 0 0 -0.32 -1.87 1.56 1.56 0 0 0 -1.9 -0.22 0.38 0.38 0 0 1 -0.46 -0.07l-0.22 -0.31a1.69 1.69 0 0 0 -2.63 0l-0.23 0.31a0.38 0.38 0 0 1 -0.49 0.11 1.54 1.54 0 0 0 -1.86 0.22 1.63 1.63 0 0 0 -0.28 1.94Z" fill="#000000" stroke-width="1"/>
    <path d="M 14.91 8.6 C 14.818 8.521 14.701 8.479 14.58 8.48 L 9.42 8.48 C 9.299 8.479 9.182 8.521 9.09 8.6 C 7.47 10 5.09 12.6 5.09 15.83 C 5.09 19.34 8.09 21.98 12.01 21.98 C 15.93 21.98 18.93 19.34 18.93 15.83 C 18.92 12.6 16.53 10 14.91 8.6 Z" fill="#000000" stroke-width="1"/>
  </g>
</svg>